<svg width="89" height="29" viewBox="0 0 89 29" fill="none" xmlns="http://www.w3.org/2000/svg">
<path d="M15.7656 1.05469C15.8359 1.17188 15.8711 1.44141 15.8711 1.86328C15.8945 2.28516 15.8828 2.74219 15.8359 3.23438C15.7891 3.72656 15.7188 4.20703 15.625 4.67578C15.5547 5.12109 15.4727 5.41406 15.3789 5.55469C15.3086 5.67188 14.875 5.71875 14.0781 5.69531C13.3047 5.64844 12.1914 5.53125 10.7383 5.34375C10.7383 6.25781 10.7266 7.42969 10.7031 8.85938C10.6797 10.2891 10.6328 11.8242 10.5625 13.4648C10.5156 15.082 10.457 16.7109 10.3867 18.3516C10.3398 19.9922 10.2812 21.4805 10.2109 22.8164C10.1406 24.1523 10.0703 25.2422 10 26.0859C9.92969 26.9297 9.87109 27.375 9.82422 27.4219C9.73047 27.4922 9.56641 27.457 9.33203 27.3164C9.12109 27.1992 8.89844 27.0234 8.66406 26.7891C8.42969 26.5547 8.20703 26.3203 7.99609 26.0859C7.80859 25.8281 7.67969 25.6055 7.60938 25.418C7.58594 25.3242 7.53906 24.8672 7.46875 24.0469C7.42188 23.2266 7.36328 22.1953 7.29297 20.9531C7.22266 19.7109 7.14062 18.3281 7.04688 16.8047C6.95312 15.2812 6.85938 13.7695 6.76562 12.2695C6.67188 10.7695 6.56641 9.36328 6.44922 8.05078C6.35547 6.73828 6.27344 5.64844 6.20312 4.78125C4.60938 4.61719 3.46094 4.45312 2.75781 4.28906C2.05469 4.125 1.65625 3.99609 1.5625 3.90234C1.46875 3.80859 1.375 3.63281 1.28125 3.375C1.16406 3.09375 1.07031 2.8125 1 2.53125C0.929688 2.25 0.894531 1.99219 0.894531 1.75781C0.871094 1.5 0.894531 1.33594 0.964844 1.26562C1.01172 1.21875 1.41016 1.17188 2.16016 1.125C2.88672 1.07812 3.78906 1.03125 4.86719 0.984375C5.94531 0.9375 7.10547 0.902344 8.34766 0.878906C9.61328 0.855469 10.7852 0.84375 11.8633 0.84375C12.9414 0.84375 13.8438 0.867187 14.5703 0.914062C15.3203 0.9375 15.7188 0.984375 15.7656 1.05469ZM23.1836 7.76953C23.3477 7.91016 23.5 8.17969 23.6406 8.57812C23.8047 8.97656 23.9453 9.45703 24.0625 10.0195C24.1797 10.582 24.2852 11.1914 24.3789 11.8477C24.4727 12.5039 24.5547 13.1484 24.625 13.7812C24.6953 14.4141 24.7422 15.0117 24.7656 15.5742C24.8125 16.1133 24.8477 16.5586 24.8711 16.9102C24.8945 17.332 24.9062 17.7773 24.9062 18.2461C24.9297 18.6914 24.9297 19.125 24.9062 19.5469C24.9062 19.9453 24.8828 20.3086 24.8359 20.6367C24.8125 20.9648 24.7656 21.2109 24.6953 21.375C24.5547 21.7266 24.3086 21.9727 23.957 22.1133C23.6289 22.2305 23.2539 22.3125 22.832 22.3594C22.6211 22.3828 22.2578 22.3945 21.7422 22.3945C21.25 22.3711 20.7109 22.3477 20.125 22.3242C19.5625 22.2773 19.0234 22.2305 18.5078 22.1836C17.9922 22.1367 17.6055 22.0898 17.3477 22.043C16.832 21.9258 16.457 21.7734 16.2227 21.5859C16.0117 21.3984 15.8008 21.1289 15.5898 20.7773C15.5195 20.6367 15.4609 20.2852 15.4141 19.7227C15.3672 19.1367 15.332 18.4453 15.3086 17.6484C15.3086 16.8281 15.3203 15.9492 15.3438 15.0117C15.3672 14.0742 15.4023 13.1836 15.4492 12.3398C15.5195 11.4961 15.5898 10.7578 15.6602 10.125C15.7539 9.49219 15.8711 9.07031 16.0117 8.85938C16.2461 8.53125 16.6445 8.22656 17.207 7.94531C17.793 7.66406 18.3203 7.44141 18.7891 7.27734C19.0234 7.20703 19.3281 7.16016 19.7031 7.13672C20.1016 7.08984 20.5117 7.08984 20.9336 7.13672C21.3789 7.16016 21.8008 7.23047 22.1992 7.34766C22.5977 7.44141 22.9258 7.58203 23.1836 7.76953ZM21.2148 18.668C21.2617 18.5742 21.3086 18.293 21.3555 17.8242C21.4258 17.332 21.4727 16.7461 21.4961 16.0664C21.543 15.3867 21.5664 14.6602 21.5664 13.8867C21.5898 13.1133 21.6016 12.3984 21.6016 11.7422C21.6016 11.0859 21.5781 10.5352 21.5312 10.0898C21.4844 9.62109 21.4258 9.35156 21.3555 9.28125C21.2383 9.1875 21.0625 9.15234 20.8281 9.17578C20.6172 9.17578 20.3945 9.21094 20.1602 9.28125C19.9258 9.32812 19.7148 9.39844 19.5273 9.49219C19.3398 9.5625 19.2109 9.63281 19.1406 9.70312C18.8359 9.96094 18.6719 10.3828 18.6484 10.9688C18.6484 11.1328 18.625 11.6016 18.5781 12.375C18.5547 13.125 18.543 13.9453 18.543 14.8359C18.543 15.7031 18.5547 16.5117 18.5781 17.2617C18.625 18.0117 18.707 18.4688 18.8242 18.6328C18.9414 18.7969 19.1055 18.9258 19.3164 19.0195C19.5508 19.0898 19.7852 19.125 20.0195 19.125C20.2773 19.125 20.5117 19.0898 20.7227 19.0195C20.957 18.9258 21.1211 18.8086 21.2148 18.668ZM31.2695 0.878906C31.7383 0.972656 32.3828 1.25391 33.2031 1.72266C34.0234 2.16797 34.8438 2.68359 35.6641 3.26953C36.5078 3.83203 37.2461 4.39453 37.8789 4.95703C38.5117 5.49609 38.8867 5.88281 39.0039 6.11719C39.0977 6.35156 39.1328 6.78516 39.1094 7.41797C39.0859 8.05078 39.0156 8.82422 38.8984 9.73828C38.7812 10.6289 38.6289 11.6133 38.4414 12.6914C38.2539 13.7695 38.043 14.8594 37.8086 15.9609C37.5742 17.0391 37.3164 18.0938 37.0352 19.125C36.7773 20.1328 36.5078 21.0234 36.2266 21.7969C36.1094 22.1719 35.8516 22.582 35.4531 23.0273C35.0547 23.4727 34.5859 23.918 34.0469 24.3633C33.5078 24.7852 32.9336 25.1836 32.3242 25.5586C31.7383 25.9336 31.1758 26.25 30.6367 26.5078C30.1211 26.7656 29.6523 26.9414 29.2305 27.0352C28.832 27.1289 28.5625 27.1055 28.4219 26.9648C28.2812 26.8242 28.1289 26.3789 27.9648 25.6289C27.8242 24.8555 27.6836 23.8945 27.543 22.7461C27.4023 21.5742 27.2734 20.2734 27.1562 18.8438C27.0391 17.3906 26.9336 15.9141 26.8398 14.4141C26.7461 12.9141 26.6641 11.4492 26.5938 10.0195C26.5469 8.56641 26.5117 7.26562 26.4883 6.11719C26.4883 4.94531 26.5117 3.97266 26.5586 3.19922C26.6055 2.40234 26.6875 1.92187 26.8047 1.75781C26.8984 1.64062 27.1328 1.52344 27.5078 1.40625C27.9062 1.28906 28.3398 1.18359 28.8086 1.08984C29.3008 0.996094 29.7812 0.925781 30.25 0.878906C30.7188 0.832031 31.0586 0.832031 31.2695 0.878906ZM31.0586 5.34375C30.8945 5.46094 30.7773 5.82422 30.707 6.43359C30.6367 7.01953 30.5781 7.73438 30.5312 8.57812C30.5078 9.39844 30.4961 10.2773 30.4961 11.2148C30.4961 12.1523 30.4844 13.0078 30.4609 13.7812C30.4141 15.7969 30.3906 17.3906 30.3906 18.5625C30.4141 19.7109 30.4375 20.5781 30.4609 21.1641C30.5078 21.7266 30.5664 22.0898 30.6367 22.2539C30.707 22.3945 30.8008 22.4648 30.918 22.4648C31.0117 22.4648 31.1641 22.3945 31.375 22.2539C31.6094 22.1133 31.8555 21.9375 32.1133 21.7266C32.3711 21.5156 32.6172 21.293 32.8516 21.0586C33.0859 20.8008 33.25 20.5781 33.3438 20.3906C33.4375 20.2031 33.5547 19.8398 33.6953 19.3008C33.8359 18.7383 33.9766 18.0938 34.1172 17.3672C34.2578 16.6172 34.3984 15.832 34.5391 15.0117C34.6797 14.168 34.7969 13.3711 34.8906 12.6211C35.0078 11.8477 35.0898 11.168 35.1367 10.582C35.207 9.97266 35.2422 9.53906 35.2422 9.28125C35.2188 8.78906 35.0195 8.28516 34.6445 7.76953C34.2695 7.25391 33.8359 6.79688 33.3438 6.39844C32.875 6 32.4062 5.69531 31.9375 5.48438C31.4922 5.27344 31.1992 5.22656 31.0586 5.34375ZM48.2148 7.76953C48.3789 7.91016 48.5312 8.17969 48.6719 8.57812C48.8359 8.97656 48.9766 9.45703 49.0938 10.0195C49.2109 10.582 49.3164 11.1914 49.4102 11.8477C49.5039 12.5039 49.5859 13.1484 49.6562 13.7812C49.7266 14.4141 49.7734 15.0117 49.7969 15.5742C49.8438 16.1133 49.8789 16.5586 49.9023 16.9102C49.9258 17.332 49.9375 17.7773 49.9375 18.2461C49.9609 18.6914 49.9609 19.125 49.9375 19.5469C49.9375 19.9453 49.9141 20.3086 49.8672 20.6367C49.8438 20.9648 49.7969 21.2109 49.7266 21.375C49.5859 21.7266 49.3398 21.9727 48.9883 22.1133C48.6602 22.2305 48.2852 22.3125 47.8633 22.3594C47.6523 22.3828 47.2891 22.3945 46.7734 22.3945C46.2812 22.3711 45.7422 22.3477 45.1562 22.3242C44.5938 22.2773 44.0547 22.2305 43.5391 22.1836C43.0234 22.1367 42.6367 22.0898 42.3789 22.043C41.8633 21.9258 41.4883 21.7734 41.2539 21.5859C41.043 21.3984 40.832 21.1289 40.6211 20.7773C40.5508 20.6367 40.4922 20.2852 40.4453 19.7227C40.3984 19.1367 40.3633 18.4453 40.3398 17.6484C40.3398 16.8281 40.3516 15.9492 40.375 15.0117C40.3984 14.0742 40.4336 13.1836 40.4805 12.3398C40.5508 11.4961 40.6211 10.7578 40.6914 10.125C40.7852 9.49219 40.9023 9.07031 41.043 8.85938C41.2773 8.53125 41.6758 8.22656 42.2383 7.94531C42.8242 7.66406 43.3516 7.44141 43.8203 7.27734C44.0547 7.20703 44.3594 7.16016 44.7344 7.13672C45.1328 7.08984 45.543 7.08984 45.9648 7.13672C46.4102 7.16016 46.832 7.23047 47.2305 7.34766C47.6289 7.44141 47.957 7.58203 48.2148 7.76953ZM46.2461 18.668C46.293 18.5742 46.3398 18.293 46.3867 17.8242C46.457 17.332 46.5039 16.7461 46.5273 16.0664C46.5742 15.3867 46.5977 14.6602 46.5977 13.8867C46.6211 13.1133 46.6328 12.3984 46.6328 11.7422C46.6328 11.0859 46.6094 10.5352 46.5625 10.0898C46.5156 9.62109 46.457 9.35156 46.3867 9.28125C46.2695 9.1875 46.0938 9.15234 45.8594 9.17578C45.6484 9.17578 45.4258 9.21094 45.1914 9.28125C44.957 9.32812 44.7461 9.39844 44.5586 9.49219C44.3711 9.5625 44.2422 9.63281 44.1719 9.70312C43.8672 9.96094 43.7031 10.3828 43.6797 10.9688C43.6797 11.1328 43.6562 11.6016 43.6094 12.375C43.5859 13.125 43.5742 13.9453 43.5742 14.8359C43.5742 15.7031 43.5859 16.5117 43.6094 17.2617C43.6562 18.0117 43.7383 18.4688 43.8555 18.6328C43.9727 18.7969 44.1367 18.9258 44.3477 19.0195C44.582 19.0898 44.8164 19.125 45.0508 19.125C45.3086 19.125 45.543 19.0898 45.7539 19.0195C45.9883 18.9258 46.1523 18.8086 46.2461 18.668ZM52.1523 28.0898C52.1055 27.9727 52.082 27.5508 52.082 26.8242C52.082 26.0977 52.082 25.1836 52.082 24.082C52.1055 22.9805 52.1289 21.75 52.1523 20.3906C52.1992 19.0078 52.2344 17.6133 52.2578 16.207C52.3047 14.7773 52.3516 13.3945 52.3984 12.0586C52.4453 10.6992 52.4805 9.49219 52.5039 8.4375C52.5508 7.38281 52.5859 6.52734 52.6094 5.87109C52.6328 5.19141 52.6562 4.82813 52.6797 4.78125C52.7031 4.6875 52.8086 4.45312 52.9961 4.07812C53.1836 3.70313 53.3945 3.31641 53.6289 2.91797C53.8867 2.49609 54.1445 2.13281 54.4023 1.82812C54.6602 1.5 54.8828 1.34766 55.0703 1.37109C55.1406 1.39453 55.1992 1.86328 55.2461 2.77734C55.3164 3.66797 55.375 4.81641 55.4219 6.22266C55.4922 7.62891 55.5391 9.1875 55.5625 10.8984C55.6094 12.5859 55.6445 14.2383 55.668 15.8555C55.7148 17.4492 55.75 18.9023 55.7734 20.2148C55.7969 21.5039 55.8203 22.4531 55.8438 23.0625C56.5938 23.1328 57.3438 23.1914 58.0938 23.2383C58.8672 23.2852 59.5586 23.3438 60.168 23.4141C60.7773 23.4609 61.2695 23.5078 61.6445 23.5547C62.043 23.6016 62.2539 23.6367 62.2773 23.6602C62.3477 23.7539 62.4414 23.9766 62.5586 24.3281C62.6992 24.6562 62.8281 25.0195 62.9453 25.418C63.0625 25.793 63.1445 26.1445 63.1914 26.4727C63.2617 26.8008 63.25 27 63.1562 27.0703C60.4609 27.5625 58.375 27.8906 56.8984 28.0547C55.4219 28.2188 54.332 28.3008 53.6289 28.3008C52.8086 28.3008 52.3164 28.2305 52.1523 28.0898ZM66.7773 11.8828C66.8242 12 66.8477 12.375 66.8477 13.0078C66.8711 13.6172 66.8711 14.3672 66.8477 15.2578C66.8477 16.125 66.8242 17.0625 66.7773 18.0703C66.7305 19.0547 66.6719 19.9922 66.6016 20.8828C66.5547 21.75 66.4961 22.5 66.4258 23.1328C66.3555 23.7422 66.2852 24.1055 66.2148 24.2227C66.0039 24.5508 65.6875 24.7617 65.2656 24.8555C64.8438 24.9258 64.5391 24.9375 64.3516 24.8906C64.2578 24.8906 64.1523 24.6211 64.0352 24.082C63.9414 23.543 63.8477 22.8633 63.7539 22.043C63.6602 21.2227 63.5781 20.332 63.5078 19.3711C63.4375 18.4102 63.3789 17.4961 63.332 16.6289C63.2852 15.7383 63.2617 14.9648 63.2617 14.3086C63.2617 13.6523 63.2852 13.2305 63.332 13.043C63.4023 12.7383 63.6016 12.4688 63.9297 12.2344C64.2812 12 64.6445 11.8242 65.0195 11.707C65.418 11.5898 65.7812 11.543 66.1094 11.5664C66.4609 11.5664 66.6836 11.6719 66.7773 11.8828ZM66.9531 6.1875C67.0469 6.375 67.082 6.63281 67.0586 6.96094C67.0586 7.28906 67.0234 7.62891 66.9531 7.98047C66.8828 8.33203 66.7891 8.67188 66.6719 9C66.5547 9.32812 66.4375 9.58594 66.3203 9.77344C66.0859 10.1016 65.7344 10.3125 65.2656 10.4062C64.8203 10.4766 64.4922 10.4883 64.2812 10.4414C64.1172 10.418 63.9531 10.3125 63.7891 10.125C63.625 9.91406 63.4844 9.66797 63.3672 9.38672C63.25 9.08203 63.168 8.75391 63.1211 8.40234C63.0742 8.05078 63.0859 7.72266 63.1562 7.41797C63.2266 7.11328 63.4492 6.84375 63.8242 6.60938C64.1992 6.35156 64.5977 6.16406 65.0195 6.04688C65.4414 5.90625 65.8398 5.84766 66.2148 5.87109C66.5898 5.87109 66.8359 5.97656 66.9531 6.1875ZM79.7148 9.70312C79.7383 9.96094 79.6914 10.3594 79.5742 10.8984C79.4805 11.4375 79.3281 11.9766 79.1172 12.5156C78.9297 13.0547 78.6719 13.5234 78.3438 13.9219C78.0391 14.3203 77.6875 14.5195 77.2891 14.5195C77.0078 14.5195 76.7734 14.2969 76.5859 13.8516C76.4219 13.4062 76.293 12.8906 76.1992 12.3047C76.1289 11.6953 76.0703 11.0977 76.0234 10.5117C75.9766 9.92578 75.9297 9.51562 75.8828 9.28125C75.8125 9.16406 75.6719 9.05859 75.4609 8.96484C75.2734 8.84766 75.0859 8.78906 74.8984 8.78906C74.7109 8.78906 74.5 8.94141 74.2656 9.24609C74.0312 9.55078 73.7969 9.90234 73.5625 10.3008C73.3516 10.6992 73.1641 11.0977 73 11.4961C72.8594 11.8945 72.8008 12.1875 72.8242 12.375C72.8242 12.5156 72.9766 12.7617 73.2812 13.1133C73.5859 13.4648 73.9609 13.8867 74.4062 14.3789C74.875 14.8477 75.3672 15.3633 75.8828 15.9258C76.4219 16.4648 76.9141 17.0156 77.3594 17.5781C77.8047 18.1172 78.1797 18.6328 78.4844 19.125C78.8125 19.6172 78.9883 20.0391 79.0117 20.3906C79.0352 20.8125 78.918 21.3516 78.6602 22.0078C78.4258 22.6641 78.1211 23.2969 77.7461 23.9062C77.3711 24.5156 76.9727 25.043 76.5508 25.4883C76.1289 25.9336 75.7539 26.168 75.4258 26.1914C75.0977 26.2148 74.6172 26.0391 73.9844 25.6641C73.375 25.2656 72.7539 24.8086 72.1211 24.293C71.5117 23.7539 70.9609 23.2266 70.4688 22.7109C70 22.1953 69.7305 21.8203 69.6602 21.5859C69.5898 21.375 69.543 21.0938 69.5195 20.7422C69.5195 20.3906 69.5312 20.0391 69.5547 19.6875C69.6016 19.3359 69.6719 19.043 69.7656 18.8086C69.8594 18.5508 69.9766 18.4219 70.1172 18.4219C70.2578 18.4219 70.5391 18.668 70.9609 19.1602C71.3828 19.6289 71.8398 20.168 72.332 20.7773C72.8242 21.3633 73.3047 21.9023 73.7734 22.3945C74.2422 22.8633 74.582 23.0977 74.793 23.0977C74.9102 23.0977 75.0391 23.0156 75.1797 22.8516C75.3203 22.6641 75.4492 22.4531 75.5664 22.2188C75.6836 21.9844 75.7773 21.75 75.8477 21.5156C75.9414 21.2578 75.9883 21.0586 75.9883 20.918C75.9648 20.707 75.7773 20.4023 75.4258 20.0039C75.0742 19.6055 74.6289 19.1602 74.0898 18.668C73.5508 18.1758 72.9648 17.6602 72.332 17.1211C71.6992 16.5586 71.1133 16.0312 70.5742 15.5391C70.0352 15.0469 69.5898 14.6016 69.2383 14.2031C68.8867 13.8047 68.6992 13.5 68.6758 13.2891C68.6523 13.0781 68.7227 12.75 68.8867 12.3047C69.0508 11.8359 69.2617 11.332 69.5195 10.793C69.7773 10.2305 70.0703 9.65625 70.3984 9.07031C70.75 8.48438 71.1016 7.94531 71.4531 7.45312C71.8047 6.96094 72.1445 6.5625 72.4727 6.25781C72.8242 5.92969 73.1289 5.76562 73.3867 5.76562C73.9023 5.76562 74.5117 5.90625 75.2148 6.1875C75.9414 6.46875 76.6328 6.82031 77.2891 7.24219C77.9453 7.64063 78.5078 8.0625 78.9766 8.50781C79.4453 8.95312 79.6914 9.35156 79.7148 9.70312ZM88.5742 8.92969C88.5977 9 88.5977 9.19922 88.5742 9.52734C88.5508 9.83203 88.5039 10.1836 88.4336 10.582C88.3867 10.957 88.3281 11.3086 88.2578 11.6367C88.1875 11.9414 88.1289 12.1289 88.082 12.1992C87.8477 12.2227 87.6133 12.2344 87.3789 12.2344C87.1445 12.2109 86.9219 12.1992 86.7109 12.1992H85.9727C85.9492 13.7461 85.9141 15.2812 85.8672 16.8047C85.8203 18.3281 85.7617 19.6992 85.6914 20.918C85.6211 22.1133 85.5391 23.0859 85.4453 23.8359C85.375 24.5859 85.3047 24.9727 85.2344 24.9961C85.0703 25.0195 84.8828 24.9492 84.6719 24.7852C84.4609 24.6211 84.25 24.4219 84.0391 24.1875C83.8516 23.9297 83.6758 23.6719 83.5117 23.4141C83.3711 23.1328 83.2891 22.8867 83.2656 22.6758C83.1484 21.2461 83.043 19.8867 82.9492 18.5977C82.8555 17.2852 82.7852 16.125 82.7383 15.1172C82.6445 13.9453 82.5859 12.8555 82.5625 11.8477C82.3047 11.8242 82.0469 11.7891 81.7891 11.7422C81.5547 11.6953 81.3086 11.6484 81.0508 11.6016C80.8164 11.5547 80.5703 11.5078 80.3125 11.4609C80.2656 11.4141 80.207 11.3086 80.1367 11.1445C80.0664 10.957 79.9961 10.7578 79.9258 10.5469C79.8789 10.3359 79.832 10.1367 79.7852 9.94922C79.7383 9.73828 79.7148 9.58594 79.7148 9.49219C79.7148 9.42188 79.9727 9.35156 80.4883 9.28125C81.0273 9.21094 81.6836 9.15234 82.457 9.10547C82.4102 7.86328 82.375 6.78516 82.3516 5.87109C82.3516 4.93359 82.3867 4.30078 82.457 3.97266C82.5273 3.52734 82.7148 3.10547 83.0195 2.70703C83.3477 2.28516 83.6875 1.92187 84.0391 1.61719C84.4141 1.3125 84.7539 1.08984 85.0586 0.949219C85.3867 0.785156 85.5977 0.738281 85.6914 0.808594C85.7617 0.855469 85.8203 1.10156 85.8672 1.54688C85.9141 1.96875 85.9492 2.54297 85.9727 3.26953C85.9961 3.99609 86.0078 4.85156 86.0078 5.83594C86.0078 6.79688 86.0078 7.81641 86.0078 8.89453C86.7109 8.84766 87.3086 8.83594 87.8008 8.85938C88.293 8.85938 88.5508 8.88281 88.5742 8.92969Z" fill="black"/>
</svg>
